<svg width="18" height="18" viewBox="0 0 18 18" fill="none" xmlns="http://www.w3.org/2000/svg">
<path d="M15.6415 0.934187C15.497 0.957162 15.3756 1.05563 15.3756 1.15081C15.3756 1.17707 15.4051 1.2263 15.438 1.25912C15.497 1.3182 15.5364 1.32148 15.9401 1.30507C16.6491 1.27553 16.7541 1.36087 16.7541 1.95165C16.7541 2.41115 16.6688 2.75578 16.4456 3.21856C16.0845 3.95376 15.8285 4.22946 13.3407 6.53352C10.4721 9.19206 7.40985 12.0049 7.00287 12.3593C6.88799 12.4578 6.49085 12.7269 6.11997 12.9534C4.38372 14.0168 3.70103 14.4238 3.64524 14.4238C3.59601 14.4238 3.68791 14.2695 5.32898 11.5552C5.60139 11.099 5.72611 10.9579 8.22054 8.25337C10.902 5.34539 13.3111 2.77219 13.6886 2.41115C13.9708 2.14202 14.2531 1.9254 14.5584 1.74488C14.6896 1.66939 14.8111 1.58077 14.8275 1.55451C14.8767 1.47574 14.8275 1.33133 14.7356 1.28866C14.6699 1.25912 14.6273 1.26897 14.4763 1.34774C13.9282 1.63328 13.3538 2.15514 11.739 3.82904L11.2434 4.34433L10.2817 4.08176C9.7533 3.93735 9.30365 3.81263 9.28067 3.80606C9.25441 3.79622 9.27739 3.73714 9.35288 3.62883C9.52683 3.36954 9.6056 3.12338 9.6253 2.78203C9.64171 2.46367 9.6056 2.30284 9.50714 2.26346C9.38898 2.21751 8.8901 2.24376 8.68989 2.30612C8.37152 2.40787 8.20085 2.52275 7.79386 2.92317L7.41642 3.29405L6.89127 3.14635C6.60245 3.06758 6.31034 2.98553 6.24141 2.96583L6.11669 2.93301L6.21515 2.81814C6.4449 2.55885 6.58932 2.14202 6.58603 1.74816C6.58603 1.41338 6.54337 1.34117 6.32018 1.31163C6.00838 1.26897 5.58498 1.36415 5.2699 1.54795C5.18784 1.5939 4.93512 1.8138 4.70865 2.03371L4.29838 2.43741L3.49426 2.21094C3.05117 2.0895 2.6606 1.98776 2.62449 1.98447C2.53587 1.98447 1.91883 2.60152 1.91883 2.69013C1.91883 2.72624 1.93196 2.77219 1.94509 2.79516C1.95822 2.81486 3.04789 3.51395 4.36403 4.34762C7.25231 6.17577 7.25559 6.17905 7.81027 6.62542C8.05643 6.82235 8.0991 6.83876 8.21398 6.75671C8.26977 6.71732 8.28618 6.67794 8.27962 6.60245C8.26321 6.42193 7.68883 5.99525 6.25126 5.08282C5.77206 4.78086 4.85635 4.2032 4.21633 3.79622C3.57631 3.38923 2.90676 2.96912 2.7328 2.85752L2.41115 2.65731L2.549 2.51946C2.62121 2.44397 2.69998 2.38818 2.71967 2.39802C2.73937 2.40459 3.77652 2.69013 5.02045 3.03148C6.26767 3.37282 8.10895 3.87499 9.11328 4.15069L10.9414 4.65286L10.7215 4.88917C10.6001 5.01717 10.134 5.51278 9.68109 5.99197C7.58709 8.20742 5.93945 10.0389 5.3979 10.7478C5.29615 10.8824 5.12876 11.1252 5.0303 11.2894C4.60034 11.995 4.32792 12.4184 4.30495 12.4217C4.28525 12.4217 1.6858 10.8397 1.62344 10.7905C1.61688 10.7839 1.6858 10.7018 1.7777 10.6099L1.94509 10.4426L3.24482 10.8102C3.95704 11.0137 4.58393 11.1745 4.63316 11.1679C4.68896 11.1613 4.74147 11.1252 4.77101 11.0727C4.81368 10.994 4.81368 10.9775 4.76773 10.9053C4.72178 10.8364 4.52485 10.7741 3.28748 10.4229C2.20438 10.1176 1.84334 10.029 1.79739 10.052C1.67924 10.1176 1.0983 10.738 1.0983 10.8036C1.0983 10.8364 1.11799 10.8889 1.13768 10.9185C1.16066 10.948 1.83021 11.3714 2.62449 11.8637C3.41877 12.3528 4.07192 12.763 4.07848 12.7794C4.08176 12.7926 3.97673 12.9895 3.84545 13.2127C3.19887 14.2991 3.12666 14.5091 3.33343 14.7159C3.55334 14.9358 3.61898 14.9063 5.51934 13.7674C6.18233 13.3702 6.72717 13.0519 6.73373 13.0584C6.75342 13.0781 7.59693 16.0649 7.59693 16.1108C7.59693 16.1338 7.52473 16.2191 7.43939 16.3045L7.28185 16.4587L6.66152 15.4544C6.32346 14.903 6.02151 14.4304 5.99853 14.4041C5.8935 14.2991 5.69329 14.3943 5.69329 14.5485C5.69329 14.624 7.04225 16.8395 7.13087 16.9117C7.24246 16.997 7.31795 16.9543 7.67242 16.5933C7.86607 16.3996 8.02361 16.2257 8.02361 16.206C8.02361 16.1797 7.12759 12.9764 7.0882 12.8582C7.08164 12.8385 7.20308 12.7171 7.36062 12.5956C7.88904 12.1788 9.37257 10.8692 10.39 9.9207C10.6001 9.72705 10.7872 9.56623 10.8036 9.56623C10.8463 9.56623 11.3353 10.1176 11.6077 10.4754C11.9097 10.8627 12.1263 11.1975 13.7148 13.7116C14.5255 14.9883 15.2082 16.055 15.2345 16.0813C15.2607 16.1075 15.3132 16.1305 15.3493 16.1305C15.4314 16.1305 16.0255 15.5594 16.0484 15.4577C16.0583 15.4216 15.9631 15.0244 15.8384 14.5715L15.6086 13.7542L16.0091 13.3407C16.2322 13.1142 16.4489 12.8648 16.4981 12.7827C16.6491 12.5202 16.7278 12.2346 16.7311 11.9261C16.7377 11.5486 16.695 11.4863 16.4325 11.4535C16.0747 11.4141 15.6185 11.5388 15.2968 11.7685C15.1557 11.8703 15.1098 11.89 15.0933 11.8539C15.0835 11.8276 15.0047 11.5421 14.9161 11.2204L14.7553 10.6362L15.1229 10.2588C15.6612 9.70079 15.8187 9.36273 15.7957 8.80477C15.7826 8.41419 15.7727 8.40763 15.2936 8.42404C14.9063 8.44045 14.7159 8.49625 14.4303 8.68661C14.3516 8.73584 14.2794 8.77851 14.2662 8.77851C14.2531 8.77851 14.1776 8.53891 14.0989 8.24352C14.0201 7.95141 13.9315 7.68556 13.9052 7.65274C13.8297 7.5674 13.682 7.58053 13.6164 7.67899C13.5671 7.75776 13.6032 7.90218 14.6076 11.5552L15.648 15.3494L15.5135 15.4839C15.438 15.5561 15.3723 15.6119 15.3658 15.6054C15.3592 15.5955 14.6929 14.5387 13.8822 13.2586C12.1394 10.4951 11.9622 10.2358 11.3386 9.54981C11.2106 9.40868 11.1121 9.28396 11.1154 9.26755C11.122 9.25442 11.437 8.95246 11.8145 8.59471C13.2586 7.23262 15.5758 4.99748 15.8712 4.67583C16.5342 3.96032 16.8624 3.40892 17.0593 2.69013C17.1151 2.48008 17.1315 2.33566 17.1315 1.96806C17.1315 1.51841 17.1283 1.50528 17.0331 1.33461C16.9215 1.13112 16.7311 0.986701 16.5211 0.937469C16.3602 0.898083 15.8614 0.898083 15.6415 0.934187ZM6.21844 1.78098C6.21844 1.90898 6.1331 2.22735 6.05761 2.37505C6.02151 2.44069 5.92961 2.5687 5.84755 2.65731L5.70314 2.81814L5.23708 2.69013C4.98107 2.62121 4.76445 2.55228 4.75788 2.53916C4.73491 2.50305 5.31585 1.96478 5.48652 1.86303C5.66704 1.75801 5.88694 1.69564 6.08059 1.69236C6.21187 1.68908 6.21844 1.69564 6.21844 1.78098ZM9.25441 2.6409C9.28724 2.69342 9.20518 3.07086 9.12641 3.2481C9.08374 3.33672 8.99841 3.47128 8.93605 3.54349L8.82117 3.6715L8.3387 3.54349L7.85951 3.41549L8.14177 3.12994C8.32229 2.94942 8.49296 2.81157 8.60455 2.75578C8.85728 2.63434 9.21175 2.5687 9.25441 2.6409ZM15.4248 8.81133C15.4609 8.87041 15.3756 9.2577 15.2804 9.45135C15.2148 9.58264 15.0901 9.74018 14.9063 9.9207L14.6338 10.1931L14.5124 9.75003C14.4468 9.50715 14.391 9.28724 14.391 9.26099C14.391 9.19206 14.6273 8.99513 14.8111 8.9098C15.0408 8.80149 15.3855 8.74569 15.4248 8.81133ZM16.3602 11.913C16.3602 12.0738 16.2848 12.3429 16.1929 12.5234C16.1338 12.6317 15.973 12.8254 15.7892 13.0092L15.4872 13.3112L15.3658 12.8582C15.2968 12.6088 15.2443 12.3889 15.2443 12.3725C15.2443 12.3265 15.4938 12.0902 15.6218 12.0114C15.7629 11.9228 16.0583 11.8342 16.2224 11.8342C16.3471 11.8309 16.3602 11.8375 16.3602 11.913Z" fill="#646464"/>
<path d="M14.5222 2.41118C14.4861 2.44729 14.4565 2.4998 14.4565 2.52606C14.4565 2.61468 14.6108 2.7394 14.7191 2.7394C14.8405 2.7394 15.0375 2.83458 15.1359 2.94289C15.2278 3.04135 15.3099 3.235 15.3099 3.35644C15.3099 3.54024 15.5331 3.62886 15.6545 3.49429C15.7103 3.43193 15.7136 3.40567 15.6808 3.21203C15.6151 2.82473 15.3328 2.50308 14.9718 2.39477C14.7421 2.32585 14.6009 2.33241 14.5222 2.41118Z" fill="#646464"/>
<path d="M2.30286 5.65392C2.0206 5.93946 1.78757 6.19547 1.78757 6.22173C1.78757 6.32019 1.88603 6.41537 1.99106 6.41537C2.07968 6.41537 2.16173 6.34973 2.55231 5.96244C2.96914 5.54889 3.10042 5.39135 3.10042 5.29945C3.10042 5.24037 2.97242 5.13534 2.89365 5.13534C2.84113 5.13534 2.67046 5.28632 2.30286 5.65392Z" fill="#646464"/>
<path d="M4.78723 6.45493C4.60015 6.64201 4.44589 6.82253 4.44589 6.85207C4.44589 6.93084 4.56405 7.03915 4.65267 7.03915C4.74785 7.03915 5.36489 6.42868 5.36489 6.33021C5.36489 6.24159 5.30253 6.1661 5.20735 6.13656C5.13842 6.11687 5.08263 6.15954 4.78723 6.45493Z" fill="#646464"/>
<path d="M1.08831 6.86861C0.927487 7.02943 0.868408 7.11477 0.868408 7.17713C0.868408 7.26903 0.970155 7.36749 1.06534 7.36749C1.13426 7.36749 1.59048 6.91784 1.59048 6.84891C1.59048 6.74717 1.4953 6.64542 1.40011 6.64542C1.33119 6.64542 1.25242 6.70122 1.08831 6.86861Z" fill="#646464"/>
<path d="M3.32351 7.91539C2.85088 8.38474 2.73929 8.51274 2.73929 8.58823C2.73929 8.68013 2.84103 8.77859 2.93293 8.77859C2.95919 8.77859 3.24474 8.51602 3.56639 8.19766C3.98322 7.78082 4.15061 7.59374 4.15061 7.54123C4.15061 7.45261 4.0423 7.33445 3.96353 7.33445C3.93399 7.33445 3.64516 7.59702 3.32351 7.91539Z" fill="#646464"/>
<path d="M11.3187 12.9929C11.066 13.2423 11.0102 13.3178 11.0102 13.3966C11.0102 13.5148 11.0758 13.5771 11.194 13.5771C11.2596 13.5771 11.3581 13.5016 11.5878 13.2719C11.9128 12.9502 11.9587 12.8518 11.8438 12.7369C11.7322 12.6253 11.6371 12.6712 11.3187 12.9929Z" fill="#646464"/>
<path d="M9.83837 14.4667C9.24102 15.0607 9.19507 15.1329 9.32964 15.2544C9.46421 15.3758 9.52329 15.3364 10.1206 14.7391C10.5867 14.273 10.6917 14.1516 10.6917 14.0761C10.6917 14.0269 10.6622 13.9678 10.6294 13.9415C10.4882 13.8398 10.4292 13.8792 9.83837 14.4667Z" fill="#646464"/>
<path d="M12.1358 15.448C11.6993 15.8846 11.6337 15.96 11.6337 16.0519C11.6337 16.1734 11.6993 16.2357 11.8207 16.2357C11.8864 16.2357 12.0144 16.1307 12.4083 15.7303C12.9367 15.1986 12.9728 15.1395 12.8481 15.0148C12.7233 14.8901 12.6643 14.9262 12.1358 15.448Z" fill="#646464"/>
<path d="M10.9053 16.682C10.6657 16.9216 10.6296 17.0234 10.7412 17.1251C10.8528 17.2269 10.9447 17.1941 11.181 16.9577C11.4206 16.7182 11.4501 16.6361 11.3385 16.5245C11.2269 16.4129 11.1449 16.4425 10.9053 16.682Z" fill="#646464"/>
</svg>
